<svg version="1.1" xmlns="http://www.w3.org/2000/svg"
	 viewBox="0 0 400 400">
<path d="M131.8,278.1c7.3,7.3,7.3,19.3,0,26.7l0,0c-7.3,7.3-19.3,7.3-26.7,0l-86.7-86.7c-3.7-3.7-5.5-8.6-5.5-13.5
	c0-4.9,1.8-9.8,5.5-13.5l86.7-86.7c7.3-7.3,19.3-7.3,26.7,0h0c7.3,7.3,7.3,19.3,0,26.7l-73.5,73.5L131.8,278.1z M384,190.6
	l-86.7-86.7c-7.3-7.3-19.3-7.3-26.7,0c-7.3,7.3-7.3,19.3,0,26.7l73.5,73.5l-73.5,73.5c-7.3,7.3-7.3,19.3,0,26.7v0
	c7.3,7.3,19.3,7.3,26.7,0l86.7-86.7c3.7-3.7,5.5-8.6,5.5-13.5C389.5,199.2,387.7,194.3,384,190.6z M216.9,111.5L147.6,286
	c-3.8,9.6,0.9,20.7,10.6,24.5l0,0c9.6,3.8,20.7-0.9,24.5-10.6l69.3-174.5c3.8-9.6-0.9-20.7-10.6-24.5l0,0
	C231.7,97.1,220.7,101.8,216.9,111.5z"/>
</svg>