<?xml version="1.0" encoding="utf-8"?>
<!-- Generator: Adobe Illustrator 21.0.2, SVG Export Plug-In . SVG Version: 6.00 Build 0)  -->
<svg version="1.1" xmlns="http://www.w3.org/2000/svg" xmlns:xlink="http://www.w3.org/1999/xlink" x="0px" y="0px"
	 viewBox="0 0 355 400" style="enable-background:new 0 0 355 400;" xml:space="preserve">
<style type="text/css">
	.st0{fill:#FFFFFF;}
</style>
<path class="st0" d="M268.6,75.2c0-32-23.3-61.1-48.9-61.1h-4.2C211.8,9.2,206,6,199.4,6C188.1,6,179,15.1,179,26.4
	s9.1,20.4,20.4,20.4c6.6,0,12.5-3.2,16.2-8.1h4.2c9.6,0,25.2,15.7,25.2,36.6c0,49.8-33.6,127-74.1,127h-8.1
	c-40.5,0-74.1-77.2-74.1-127c0-20.9,15.6-36.6,25.2-36.6h4.2c3.7,4.9,9.6,8.1,16.2,8.1c11.2,0,20.4-9.1,20.4-20.4S145.5,6,134.2,6
	c-6.6,0-12.5,3.2-16.2,8.1h-4.2C88.3,14.1,65,43.3,65,75.2c0,57.1,35.4,142.1,89.6,150v114.6c0,19.1-13.5,34.6-32.6,34.6
	c-19.1,0-34.6-15.5-34.6-34.6s16-34.1,35.1-34.1c0,0,5.9-0.5,15.8,0.5v-23.1c-5.3-0.2-10.7-0.3-16.3-0.3c-31.5,0-57,25.5-57,57
	s25.5,57,57,57c31.5,0,57-25.5,57-57V225.2C233.2,217.3,268.6,132.4,268.6,75.2z M284.9,299.1c-11.8,0-22.6,4.2-31.1,11.2
	c-14.7-7.6-33.9-15-58.5-20.2v25.1c18.1,4.2,32.6,9.7,44,15.3c-2.1,5.5-3.3,11.4-3.3,17.5c0,27,21.9,48.9,48.9,48.9
	c27,0,48.9-21.9,48.9-48.9C333.7,321,311.8,299.1,284.9,299.1z M284.9,381.6c-18.5,0-33.6-15-33.6-33.6s15-33.6,33.6-33.6
	c18.5,0,33.6,15,33.6,33.6S303.4,381.6,284.9,381.6z M284.9,331.7c-9,0-16.3,7.3-16.3,16.3c0,9,7.3,16.3,16.3,16.3
	c9,0,16.3-7.3,16.3-16.3C301.1,339,293.8,331.7,284.9,331.7z"/>
</svg>
