<svg xmlns="http://www.w3.org/2000/svg" viewBox="0 0 17.05 18.28"><path class="cls-1" d="M17.05,8h-1V6.11a2,2,0,0,0-2-2h-.27a2,2,0,0,0-2,2v.25h0v8.79a2.42,2.42,0,0,1-2.42,2.42H9a2.42,2.42,0,0,1-2.42-2.42V12.27H8a1.52,1.52,0,0,0,1.52-1.52V3A1.52,1.52,0,0,0,8,1.49H6.55A1.82,1.82,0,0,0,3,1.49H1.52A1.52,1.52,0,0,0,0,3v7.75a1.52,1.52,0,0,0,1.52,1.52h2V18.1h.72V12.27H5.82v1.61h0v1.27A3.14,3.14,0,0,0,9,18.28h.46a3.14,3.14,0,0,0,3.14-3.14v-4h0V6.11a1.24,1.24,0,0,1,1.24-1.24h.27a1.24,1.24,0,0,1,1.24,1.24V8h-.91v3.93h.91V13.2h.72V11.91h1ZM2.19,8.12v-2H4V4.37h2V6.15H7.73v2H5.95V9.9H4V8.12ZM4.75.72a1.09,1.09,0,0,1,1,.77H3.72A1.09,1.09,0,0,1,4.75.72Z"/></svg>
