<svg xmlns="http://www.w3.org/2000/svg" viewBox="0 0 14.63 15.82"><path class="cls-1" d="M7.55,0,6.45.6A.89.89,0,0,0,6,1.32v3.5H5V1.32A1.39,1.39,0,0,0,4.65.47L4.35.18a.5.5,0,0,0-.71,0L3.35.47A1.39,1.39,0,0,0,3,1.32v3.5H2V1.32A.89.89,0,0,0,1.55.6L.45,0A.28.28,0,0,0,0,.32V4.84A.5.5,0,0,0,0,5,4.26,4.26,0,0,0,2.8,7.79v0l-.6,6a1.78,1.78,0,0,0,1.8,2,1.78,1.78,0,0,0,1.8-2l-.6-6v0a4.19,4.19,0,0,0,2.8-3V.32A.28.28,0,0,0,7.55,0Z"/><path class="cls-1" d="M12.84.72l-.42.21a3.55,3.55,0,0,0-1.79,2.89v3a2,2,0,0,0,2,2,1,1,0,0,0-1,1v5a1,1,0,0,0,1,1h1a1,1,0,0,0,1-1v-13A1.14,1.14,0,0,0,12.84.72Z"/></svg>
