<svg xmlns="http://www.w3.org/2000/svg" viewBox="0 0 14.77 18.65"><path class="cls-1" d="M5.05,3.89H9.71a.78.78,0,0,0,.78-.78V1.55H8.94a1.55,1.55,0,0,0-3.11,0H4.27V3.11A.78.78,0,0,0,5.05,3.89ZM7.38.68a.87.87,0,1,1-.87.87A.87.87,0,0,1,7.38.68ZM14,1.55H11.27V3.11h1.94v10.1H9.33V17.1H1.55v-14H3.5V1.55H.78A.78.78,0,0,0,0,2.33V17.88a.78.78,0,0,0,.78.78H14a.78.78,0,0,0,.78-.78V2.33A.78.78,0,0,0,14,1.55ZM10.1,16.9V14H13ZM4.27,7.38a.78.78,0,1,0-.78-.78A.78.78,0,0,0,4.27,7.38Zm7-1.17H5.83V7h5.44Zm-7,1.94a.78.78,0,1,0,.78.78A.78.78,0,0,0,4.27,8.16Zm7,.39H5.83v.78h5.44Zm-7,1.94a.78.78,0,1,0,.78.78A.78.78,0,0,0,4.27,10.49Zm7,.39H5.83v.78h5.44Zm-7,1.94a.78.78,0,1,0,.78.78A.78.78,0,0,0,4.27,12.82ZM5.83,14H8.55v-.78H5.83Z"/></svg>
