<svg xmlns="http://www.w3.org/2000/svg" viewBox="0 0 1000 1000"><path d="M952-48a27 27 0 0 1-27 27h-843a27 27 0 0 1-28-27h2a27 27 0 0 1 27-27h842a27 27 0 0 1 27 27zm-141 69h-68a44 44 0 0 0-44 43v366a44 44 0 0 0 44 44h68a44 44 0 0 0 43-44v-366a44 44 0 0 0-43-44zm-194 46v587a44 44 0 0 1-44 44h-68a44 44 0 0 1-44-44v-588a44 44 0 0 1 44-44h68a44 44 0 0 1 44 44zm-234 0v363a44 44 0 0 1-44 44h-67a44 44 0 0 1-44-44v-366a44 44 0 0 1 44-44h67a44 44 0 0 1 44 44zm-296 482a33 33 0 1 1 32-32 33 33 0 0 1-32 32zm0-457a33 33 0 1 1 33-33 33 33 0 0 1-33 32zm0 152a33 33 0 1 1 33-32 33 33 0 0 1-33 32zm0 153a33 33 0 1 1 33-33 33 33 0 0 1-33 33zm0 306a33 33 0 1 1 33-33 33 33 0 0 1-33 32z" transform="scale(1 -1) translate(0 -850)"/></svg>