<svg xmlns="http://www.w3.org/2000/svg" viewBox="0 0 1000 1000"><path d="M183 400h11c39 0 73 33 73 72v339c0 39-34 72-73 72h-11c-39 0-72-33-72-72v-339c6-39 39-72 72-72zm0-283h11c39 0 73 33 73 72v17c0 38-34 72-73 72h-11c-33 0-72-34-72-72v-17c6-39 39-72 72-72zm311 283h6c39 0 72 33 72 72v339c0 39-33 72-72 72h-6c-38 0-72-33-72-72v-339c0-39 28-72 72-72zm0-283h6c39 0 72 33 72 72v17c6 38-28 72-72 72h-6c-44 0-77-34-77-72v-17c5-39 33-72 77-72zm312 283h11c39 0 72 33 72 72v339c0 39-33 72-72 72h-11c-39 0-73-33-73-72v-339c0-39 28-72 73-72zm0-283h11c39 0 72 33 72 72v17c0 38-33 72-72 72h-11c-39 0-73-34-73-72v-17c0-39 28-72 73-72z"/></svg>