<svg xmlns="http://www.w3.org/2000/svg" viewBox="0 0 1000 1000"><path d="M228 422h144c39 0 72 34 72 72v12c0 38-33 72-72 72h-150c-39 0-72-34-72-72v-17c6-39 39-67 78-67zm122 311h22c39 0 72 34 72 73v11c0 39-33 72-72 72h-22c-39 0-72-33-72-72v-11c0-45 28-73 72-73zm278 0h289c39 0 72 34 72 73v11c0 39-33 72-72 72h-289c-39 0-72-33-72-72v-11c0-45 33-73 72-73zm0-311h144c39 0 72 34 72 72v12c0 38-33 72-72 72h-150c-39 0-72-34-72-72v-17c6-39 39-67 78-67zm0-305h22c39 0 72 33 72 72v11c0 39-33 72-72 72h-22c-39 0-72-33-72-72v-17c0-39 33-66 72-66zm-545 0h289c39 0 72 33 72 66v11c0 39-33 73-72 73h-289c-39 0-72-34-72-73v-11c0-39 33-66 72-66z"/></svg>