<svg xmlns="http://www.w3.org/2000/svg" viewBox="0 0 1000 1000"><path d="M213 235h450v69h-450zm0 221h450v-69h-450zm-98 429h620l92 92h-806v-954h835v535c-8-14-18-27-31-39-19-17-40-32-62-42v-362h-648v770zm98-277v-68h289c-17 20-29 43-37 68h-252zm525 127c16-16 27-39 27-64s-11-48-27-65c-17-16-40-27-65-27s-48 11-65 27c-35 36-35 94 0 129 17 17 42 25 65 25s48-8 65-25zm68 13l171 173-58 58-171-171c-23 13-48 19-75 19-42 0-79-17-108-46-30-29-46-66-46-108s16-79 46-108c29-30 66-46 108-46s79 16 108 46c48 47 59 122 25 183z"/></svg>