<svg xmlns="http://www.w3.org/2000/svg" viewBox="0 0 100 100"><path d="M61.3,0c3.6,0,6.5,2.9,6.5,6.5S64.9,13,61.3,13s-6.5-2.9-6.5-6.5S57.7,0,61.3,0z M54.8,23.9
  c0,3.6,2.9,6.5,6.5,6.5s6.5-2.9,6.5-6.5s-2.9-6.5-6.5-6.5S54.8,20.3,54.8,23.9z M54.8,41.3c0,3.6,2.9,6.5,6.5,6.5s6.5-2.9,6.5-6.5
  s-2.9-6.5-6.5-6.5S54.8,37.7,54.8,41.3z M54.8,58.6c0,3.6,2.9,6.5,6.5,6.5s6.5-2.9,6.5-6.5c0-3.6-2.9-6.5-6.5-6.5S54.8,55,54.8,58.6
  z M54.8,76c0,3.6,2.9,6.5,6.5,6.5s6.5-2.9,6.5-6.5c0-3.6-2.9-6.5-6.5-6.5S54.8,72.4,54.8,76z M54.8,93.4c0,3.6,2.9,6.5,6.5,6.5
  s6.5-2.9,6.5-6.5s-2.9-6.5-6.5-6.5S54.8,89.8,54.8,93.4z M39.1,6.6c0,3.6,2.9,6.5,6.5,6.5s6.5-2.9,6.5-6.5s-2.9-6.5-6.5-6.5
  S39.1,3,39.1,6.6z M39.1,24c0,3.6,2.9,6.5,6.5,6.5s6.5-2.9,6.5-6.5s-2.9-6.5-6.5-6.5S39.1,20.4,39.1,24z M39.1,41.4
  c0,3.6,2.9,6.5,6.5,6.5s6.5-2.9,6.5-6.5c0-3.6-2.9-6.5-6.5-6.5S39.1,37.8,39.1,41.4z M39.1,58.7c0,3.6,2.9,6.5,6.5,6.5
  s6.5-2.9,6.5-6.5s-2.9-6.5-6.5-6.5S39.1,55.1,39.1,58.7z M39.1,76.1c0,3.6,2.9,6.5,6.5,6.5s6.5-2.9,6.5-6.5c0-3.6-2.9-6.5-6.5-6.5
  S39.1,72.5,39.1,76.1z M39.1,93.5c0,3.6,2.9,6.5,6.5,6.5s6.5-2.9,6.5-6.5c0-3.6-2.9-6.5-6.5-6.5S39.1,89.9,39.1,93.5z"/></svg>