<svg xmlns="http://www.w3.org/2000/svg" viewBox="0 0 1000 1000"><path d="M513 125l54 1c9 1 2 0 20 2 85 6 47 2 115 12 39 7 70 15 93 28 20 13 10 5 28 24 17 10 22 30 25 48 0 18-9 35-23 47-37 52-81 99-124 146-3 4-3 4-6 7-29 33-60 67-92 101-20 22-10 12-28 31v273c0 42-48 65-81 39l-100-80c-12-10-19-24-19-39v-196c-16-21-8-10-25-32-26-35-52-70-77-103l-3-4c-66-89-104-141-113-158-22-47 4-85 49-105 25-12 60-21 103-27 61-8 33-6 85-9 60-7 25-4 106-6h13zm-184 216c7 10 0 1 21 29 2 2 2 2 3 4 25 33 51 68 77 102 9 12 18 24 25 34 5 6 8 10 10 12 6 9 10 19 10 30 0-12 5-24 13-34l12-12c9-10 19-21 30-32 31-34 62-68 91-100l6-8 19-21c-98 8-49 5-146 7-57-1-115-1-171-11zm177-116c-56 1-25 0-92 5-71 7-43 2-82 9 55 11 112 12 168 13 58 0 117-3 174-13-55-11-112-13-168-14z"/></svg>