<svg xmlns="http://www.w3.org/2000/svg" viewBox="0 0 1000 1000"><path d="M383 383l-49 193c-22 91-45 157-66 198-22 41-47 71-77 91-29 19-62 29-99 29-24 0-42-4-53-13s-16-20-16-32 4-22 13-30c10-8 22-13 37-13 12 0 22 4 29 10 6 6 10 14 10 24 0 9-3 16-7 20s-6 7-6 9l2 3c2 1 4 2 6 2 8 0 15-3 21-8 15-13 26-29 33-48 5-13 15-47 29-101l85-334h-58l14-49c21 1 36-2 45-7 10-6 20-19 30-38 31-57 63-97 97-121 34-25 72-37 114-37 26 0 46 5 58 15 12 11 18 24 18 40 0 15-4 26-12 35-8 8-18 12-30 12-11 0-20-3-28-10-7-7-10-15-10-25 0-7 2-14 6-22 5-8 7-13 7-16s-1-6-3-8c-2-1-5-2-8-2-16 0-33 10-50 30-29 33-52 84-69 154h61l-15 49h-59zm203 17l146-25c26 41 45 87 56 137 27-41 48-69 62-85 18-22 34-36 46-42 12-7 25-10 38-10 16 0 27 4 36 12 8 9 12 20 12 34s-4 24-12 33c-9 8-19 13-31 13-9 0-19-2-31-5-11-3-19-5-24-5-11 0-23 4-33 13-15 11-32 35-54 73 24 83 43 134 57 152 9 11 17 17 26 17 7 0 13-2 18-6 9-6 21-20 38-44l15 9c-25 40-49 67-72 84-18 12-35 18-53 18s-32-4-44-12c-12-7-23-20-32-38s-20-47-32-87c-33 42-58 72-77 91-18 19-34 32-46 38-12 5-25 8-39 8-15 0-26-4-35-12-8-9-12-19-12-33s4-26 13-35c10-9 21-14 36-14 7 0 16 3 25 7 14 7 24 10 30 10 8 0 15-2 22-5 8-4 19-13 31-27 8-9 23-27 43-55-26-99-47-158-62-178-10-12-22-19-36-19-8 0-17 2-28 4l3-16z"/></svg>