<svg xmlns="http://www.w3.org/2000/svg" viewBox="0 0 1000 1000"><path d="M356 117h555c45 0 78 33 78 72v11c0 39-39 72-78 72h-555c-45 0-78-33-78-72v-11c-6-39 33-72 78-72zm-256 0h17c39 0 72 33 72 72v11c0 39-33 72-72 72h-17c-39 0-72-33-72-72v-11c0-39 33-72 72-72zm256 305h555c45 0 78 34 78 72v12c0 38-39 72-78 72h-555c-45 0-78-34-78-72v-12c-6-38 33-72 78-72zm-256 0h17c39 0 72 34 72 72v12c0 38-33 72-72 72h-17c-39 0-72-34-72-72v-12c0-38 33-72 72-72zm250 311h556c44 0 77 34 77 73v11c0 39-39 72-77 72h-556c-44 0-78-33-78-72v-11c0-45 39-73 78-73zm-250 0h17c39 0 72 34 72 73v11c0 39-33 72-72 72h-17c-39 0-72-33-72-72v-11c0-45 33-73 72-73z"/></svg>