<svg xmlns="http://www.w3.org/2000/svg" viewBox="0 0 1177.4 1000"><path d="M556 459h-254c-5-23-17-45-35-63-49-49-130-49-180 0-49 50-49 131 0 180 50 50 131 50 180 0 18-18 30-39 35-62h254c0 1 0 3 1 5 18 68 88 108 156 90 14-4 28-10 40-18l138 139c-11 18-19 40-19 64-3 70 52 129 122 131 71 3 130-52 132-123 2-70-53-129-123-131-27-1-52 7-73 20l-141-140c17-28 23-63 14-98-4-15-11-28-19-40l148-149c19 13 42 20 67 20 70 0 127-57 127-128 0-70-57-127-127-127s-127 57-127 127c0 26 8 51 21 71l-150 149c-28-16-62-22-96-13-48 13-82 51-91 96z"/></svg>