<?xml version="1.0" encoding="utf-8"?>
<!-- Generator: Adobe Illustrator 21.0.2, SVG Export Plug-In . SVG Version: 6.00 Build 0)  -->
<svg version="1.1" id="Layer_1" xmlns="http://www.w3.org/2000/svg" xmlns:xlink="http://www.w3.org/1999/xlink" x="0px" y="0px"
	 viewBox="0 0 192 192" style="enable-background:new 0 0 192 192;" xml:space="preserve">
<path d="M162,19c0.3,7.2-5.4,13.3-12.6,13.6s-13.3-5.4-13.6-12.6c-0.3-7.2,5.3-13.3,12.6-13.6c7.1-0.5,13.1,4.9,13.6,12
	C162,18.5,162,18.7,162,19"/>
<path d="M99.7,147.2c-28.6,0-53.8-10.5-66.7-25.9c12.9,36.8,53.3,56.2,90.1,43.3c20.3-7.1,36.2-23,43.3-43.3
	C153.5,137,128.6,147.2,99.7,147.2"/>
<path d="M99.7,47.2c28.6,0,53.8,10.5,66.7,25.9c-12.9-36.8-53.3-56.2-90.1-43.3c-20.3,7.1-36.2,23-43.3,43.3
	C45.9,57.4,71.1,47.2,99.7,47.2"/>
<path d="M38.8,41.1c-5.2,0.2-9.7-3.9-9.9-9.1c0,0,0-0.1,0-0.1c-0.4-5,3.3-9.4,8.3-9.8c0.3,0,0.6,0,0.8,0
	c5.2-0.2,9.7,3.9,9.9,9.1c0,0,0,0.1,0,0.1C48,36.4,44,40.8,38.8,41.1z"/>
<path d="M62.4,171.6c0.1,2.7-0.5,5.3-1.9,7.6c-1.4,2.3-3.4,4.1-5.8,5.2c-4.9,2.3-10.7,1.4-14.6-2.3
	c-5.5-5.2-5.7-13.8-0.5-19.2c0.5-0.6,1.1-1.1,1.7-1.5c5.1-3.9,12.3-3.5,17,1c2.6,2.4,4.1,5.8,4.3,9.3l0,0H62.4z"/>
</svg>
