<svg xmlns="http://www.w3.org/2000/svg" viewBox="0 0 1000 1000"><path d="M400 48c-162 30-275 98-324 196-18 37-18 39-18 93 0 52 1 57 16 88 30 61 90 116 167 152 37 18 117 43 135 43 8 0 63 21 73 28 1 0-6 11-16 25-24 31-46 75-56 110-14 55-8 157 12 178 18 21 50 4 44-23-22-105-5-181 57-246l21-22 31 3c39 4 66-8 88-39 13-18 21-22 58-35 193-65 288-211 225-348-34-73-113-139-206-172-76-26-101-30-199-32-52-1-101 0-108 1zm165 57c172 21 300 110 313 218 4 34-11 85-35 118-33 44-91 82-165 107-19 6-35 11-35 10-1 0-5-8-10-17-4-9-17-22-28-30-18-11-25-13-56-12-19 0-58 6-87 13-49 12-55 13-89 7-41-6-50-3-58 19-4 11-5 11-25 4-41-14-93-45-123-74-57-53-77-118-55-181 43-125 248-207 453-182zm4 455c10 9 8 13-15 22-12 5-30 14-40 21l-19 12-18-10c-9-6-17-15-17-21 0-24 86-43 109-24z"/></svg>