<svg xmlns="http://www.w3.org/2000/svg" viewBox="0 0 1000 1000"><path d="M333 217c35 3 72 18 100 43-8-20-8-38-3-50 3-8 5-15 3-23-5-30-38-52-70-52-35 0-58 25-53 52 0 0-27 5-50 28-2 2-7 5-10 10 23-8 50-13 83-8zm655 343l-3-8c-2-2-20-32-42-62 0 0-83-123-140-203-15-15-50-50-128-42-42 5-92 30-110 70-2 15-5 27-7 27-5 0-10-17-23-30-7-7-20-12-32-12-13 0-23 5-30 12-13 13-20 30-25 30 0 0-3-7-5-17-13-45-68-73-113-78-75-7-110 28-125 43-57 82-142 205-142 205-23 30-43 57-43 62l-2 8c-10 25-18 55-18 85 0 122 78 223 200 223 123 0 200-101 200-223v-35c0-20 33-45 48-53 10-2 32-5 42-5 13 0 23 3 33 5 17 8 27 33 27 53v35c0 122 105 223 228 223 122 0 222-101 222-223 0-35 0-63-12-90zm-790 260c-88 0-160-73-160-160 0-88 72-160 160-160 87 0 160 72 160 160s-70 160-160 160zm305-335c-33 0-60-25-43-43 10-10 25-17 43-17 17 0 32 7 42 17 18 18-10 43-42 43zm282 322c-85 0-152-70-152-152 0-85 70-153 152-153 85 0 153 70 153 153 0 82-70 152-153 152zm-212-550c27-22 65-37 97-40 35-2 63 0 83 8-5-5-8-10-10-10-23-20-50-25-50-25 5-30-18-53-53-53s-65 25-72 53c-3 7 0 15 2 22 8 8 10 28 3 45z"/></svg>