<svg xmlns="http://www.w3.org/2000/svg" viewBox="0 0 1200 1000"><path d="M197 507c0-44 36-80 80-80 40 0 73 30 80 66h206c7-36 40-66 80-66 20 0 37 6 50 16l140-143c-10-13-16-30-16-50 0-43 36-80 80-80 43 0 80 37 80 80s-37 80-80 80c-17 0-30-3-40-13l-144 143c7 13 14 27 14 40 0 17-4 30-14 40l137 137c13-10 30-17 47-17 43 0 80 37 80 80s-37 80-80 80c-44 0-80-37-80-80 0-17 3-30 13-43l-137-137c-13 10-30 17-50 17-40 0-73-30-80-67h-206c-7 37-40 67-80 67-44 10-80-27-80-70zm1003-507v1000h-1200v-1000h1200zm-77 63h-1046v874h1050v-874z"/></svg>