<svg xmlns="http://www.w3.org/2000/svg" viewBox="0 0 1000 1000"><path d="M501 128c-261-1-473 169-474 379 0 276 253 38 359 151 75 81-149 230 113 231 261 0 473-170 473-380 1-210-211-381-471-381zm235 489c35 2 63 31 61 67-1 35-31 63-66 61-36-1-63-31-62-66s31-63 67-62zm101-197c42 2 76 38 74 81-2 42-38 76-80 74-43-2-77-38-75-81 2-42 38-76 81-74zm-234-110c2-49 43-88 93-86s88 44 86 94c-2 49-43 88-93 86s-88-44-86-94zm-163-130c55 2 99 49 96 105s-49 99-104 97-99-50-97-105 49-99 105-97zm-226 145c62 2 110 55 108 117s-55 110-117 108-110-55-108-117 55-111 117-108zm349 385c28 1 50 25 49 53s-25 50-53 49-50-25-49-53 25-50 53-49z"/></svg>