<svg xmlns="http://www.w3.org/2000/svg" viewBox="0 0 1068 1000"><path d="M543 786a436 436 0 1 1 436-435 436 436 0 0 1-436 435zm214-537l-4-7a34 34 0 0 0-45-17l-4 2a34 34 0 0 0-16 45l3 8a34 34 0 0 0 45 16l5-2a34 34 0 0 0 16-45zm-43 233l4-2a34 34 0 0 0 17-45l-3-7a34 34 0 0 0-45-17l-5 2a34 34 0 0 0-17 45l4 7a34 34 0 0 0 45 17zm-33-143l-3-7a34 34 0 0 0-45-17l-5 2a34 34 0 0 0-17 45l3 7a34 34 0 0 0 45 17l5-2a34 34 0 0 0 17-45zm-62 215l3 7a34 34 0 0 0 45 17l5-2a34 34 0 0 0 17-45l-1-7a34 34 0 0 0-45-17l-5 2a34 34 0 0 0-19 45zm-75-96l3 8a34 34 0 0 0 45 16l5-2a34 34 0 0 0 17-45l-4-7a34 34 0 0 0-45-17l-4 2a34 34 0 0 0-17 45zm-28-134l3 7a34 34 0 0 0 45 17l5-2a34 34 0 0 0 16-46l-3-7a34 34 0 0 0-45-17l-5 2a34 34 0 0 0-16 46zm-76 65l3 7a34 34 0 0 0 45 17l5-2a34 34 0 0 0 17-45l-3-7a34 34 0 0 0-45-17l-5 2a34 34 0 0 0-18 45zm-50-124l3 8a34 34 0 0 0 45 17l5-3a34 34 0 0 0 17-45l-3-7a34 34 0 0 0-45-17l-5 2a34 34 0 0 0-17 45zm-111 335a13 13 0 1 0-13-13 13 13 0 0 0 13 13zm0-96a13 13 0 1 0-13-14 13 13 0 0 0 13 14zm0-96a13 13 0 1 0-13-13 13 13 0 0 0 13 13zm0-96a13 13 0 1 0-13-14 13 13 0 0 0 13 14zm0-96a13 13 0 1 0-13-14 13 13 0 0 0 13 14zm525-90h-521a17 17 0 1 0 0 34h521a17 17 0 0 0 0-34z" transform="scale(1 -1) translate(0 -850)"/></svg>