<svg xmlns="http://www.w3.org/2000/svg" viewBox="0 0 1000 1000"><path d="M143 804v107q0 8-5 13t-13 5h-107q-8 0-13-5t-5-13v-107q0-8 5-13t13-5h107q8 0 13 5t5 13zm214-72v179q0 8-5 13t-13 5h-107q-8 0-13-5t-5-13v-179q0-8 5-13t13-5h107q8 0 13 5t5 13zm214-143v322q0 8-5 13t-12 5h-108q-7 0-12-5t-5-13v-322q0-8 5-13t12-5h108q7 0 12 5t5 13zm215-214v536q0 8-5 13t-13 5h-107q-8 0-13-5t-5-13v-536q0-8 5-13t13-5h107q8 0 13 5t5 13zm214-286v822q0 8-5 13t-13 5h-107q-8 0-13-5t-5-13v-822q0-8 5-13t13-5h107q8 0 13 5t5 13z"/></svg>