<svg xmlns="http://www.w3.org/2000/svg" viewBox="0 0 1000 1000"><path d="M821 500q0-65-25-125t-69-102-102-69-125-25-125 25-102 69-69 102-25 125 25 125 69 102 102 69 125 25 125-25 102-69 69-102 25-125zm154 155q-2 8-11 11l-163 53v171q0 9-7 15-8 5-16 2l-163-53-100 139q-6 7-15 7t-14-7l-101-139-163 53q-8 3-16-2-7-6-7-15v-171l-163-53q-9-3-11-11-3-10 2-17l100-138-100-138q-5-8-2-17 2-8 11-11l163-53v-171q0-9 7-15 8-5 16-2l163 53 101-139q5-6 14-6t15 6l100 139 163-53q8-3 16 2 7 6 7 15v171l163 53q9 3 11 11 3 9-2 17l-100 138 100 138q5 7 2 17z"/></svg>