<svg xmlns="http://www.w3.org/2000/svg" viewBox="0 0 785.7 1000"><path d="M286 411v321q0 8-5 13t-13 5h-36q-8 0-13-5t-5-13v-321q0-8 5-13t13-5h36q8 0 13 5t5 13zm143 0v321q0 8-5 13t-13 5h-36q-8 0-13-5t-5-13v-321q0-8 5-13t13-5h36q8 0 13 5t5 13zm142 0v321q0 8-5 13t-12 5h-36q-8 0-13-5t-5-13v-321q0-8 5-13t13-5h36q7 0 12 5t5 13zm72 404v-529h-500v529q0 12 4 22t8 15 6 5h464q2 0 6-5t8-15 4-22zm-375-601h250l-27-65q-4-5-9-6h-177q-6 1-10 6zm518 18v36q0 8-5 13t-13 5h-54v529q0 46-26 80t-63 34h-464q-37 0-63-33t-27-79v-531h-53q-8 0-13-5t-5-13v-36q0-8 5-13t13-5h172l39-93q9-21 31-35t44-15h178q23 0 44 15t30 35l39 93h173q8 0 13 5t5 13z"/></svg>