<svg xmlns="http://www.w3.org/2000/svg" viewBox="0 0 785.7 1000"><path d="M214 750q0 14-10 25t-25 11-25-11-11-25 11-25 25-11 25 11 10 25zm572 34q0 68-41 106t-108 39h-488q-67 0-108-39t-41-106q0-38 3-73t14-77 26-74 45-58 67-33q-12 29-12 67v113q-32 11-52 39t-20 62q0 45 32 76t76 31 76-31 31-76q0-34-20-62t-52-39v-113q0-35 14-52 74 58 165 58t165-58q13 17 13 52v35q-59 0-101 42t-41 101v50q-18 16-18 40 0 22 15 37t38 16 38-16 16-37q0-24-18-40v-50q0-29 21-50t50-21 51 21 21 50v50q-18 16-18 40 0 22 16 37t38 16 38-16 15-37q0-24-18-40v-50q0-38-19-71t-52-52v-51l-1-23-4-26-7-22q38 8 67 33t45 58 26 74 14 77 3 73zm-179-498q0 88-63 151t-151 63-152-63-62-151 62-152 152-63 151 63 63 152z"/></svg>